HIERARCHY
ROOT Hips
{
	OFFSET 0.000000 0.000000 0.000000 
	CHANNELS 6 Xposition Yposition Zposition Zrotation Yrotation Xrotation
	JOINT LeftUpLeg
	{
		OFFSET 1.363060 -1.794630 0.839290 
		CHANNELS 3 Zrotation Yrotation Xrotation
		JOINT LeftLeg
		{
			OFFSET 2.448110 -6.726130 0.000000 
			CHANNELS 3 Zrotation Yrotation Xrotation
			JOINT LeftFoot
			{
				OFFSET 2.562200 -7.039590 0.000000 
				CHANNELS 3 Zrotation Yrotation Xrotation
				JOINT LeftToeBase
				{
					OFFSET 0.157640 -0.433110 2.322550 
					CHANNELS 3 Zrotation Yrotation Xrotation
					End Site
					{
						OFFSET 0.000000 0.000000 0.000000 
					}
				}
			}
		}
	}
	JOINT RightUpLeg
	{
		OFFSET -1.305520 -1.794630 0.839290 
		CHANNELS 3 Zrotation Yrotation Xrotation
		JOINT RightLeg
		{
			OFFSET -2.542530 -6.985550 0.000000 
			CHANNELS 3 Zrotation Yrotation Xrotation
			JOINT RightFoot
			{
				OFFSET -2.568260 -7.056230 0.000000 
				CHANNELS 3 Zrotation Yrotation Xrotation
				JOINT RightToeBase
				{
					OFFSET -0.164730 -0.452590 2.363150 
					CHANNELS 3 Zrotation Yrotation Xrotation
					End Site
					{
						OFFSET 0.000000 0.000000 0.000000 
					}
				}
			}
		}
	}
	JOINT Spine
	{
		OFFSET 0.028270 2.035590 -0.193380 
		CHANNELS 3 Zrotation Yrotation Xrotation
		JOINT Spine1
		{
			OFFSET 0.056720 2.048850 -0.042750 
			CHANNELS 3 Zrotation Yrotation Xrotation
			JOINT Neck1
			{
				OFFSET -0.054170 1.746240 0.172020 
				CHANNELS 3 Zrotation Yrotation Xrotation
				JOINT Head
				{
					OFFSET 0.104070 1.761360 -0.123970 
					CHANNELS 3 Zrotation Yrotation Xrotation
					End Site
					{
						OFFSET 0.000000 0.000000 0.000000 
					}
				}
			}
			JOINT LeftArm
			{
				OFFSET 3.362410 1.200890 -0.311210 
				CHANNELS 3 Zrotation Yrotation Xrotation
				JOINT LeftForeArm
				{
					OFFSET 4.983000 -0.000000 -0.000000 
					CHANNELS 3 Zrotation Yrotation Xrotation
					JOINT LeftHand
					{
						OFFSET 3.483560 -0.000000 -0.000000 
						CHANNELS 3 Zrotation Yrotation Xrotation
						JOINT LeftHandIndex1
						{
							OFFSET 0.715260 -0.000000 -0.000000 
							CHANNELS 3 Zrotation Yrotation Xrotation
							End Site
							{
								OFFSET 0.000000 0.000000 0.000000 
							}
						}
					}
				}
			}
			JOINT RightArm
			{
				OFFSET -3.136600 1.374050 -0.404650 
				CHANNELS 3 Zrotation Yrotation Xrotation
				JOINT RightForeArm
				{
					OFFSET -5.241900 -0.000000 -0.000000 
					CHANNELS 3 Zrotation Yrotation Xrotation
					JOINT RightHand
					{
						OFFSET -3.444170 -0.000000 -0.000000 
						CHANNELS 3 Zrotation Yrotation Xrotation
						JOINT RightHandIndex1
						{
							OFFSET -0.622530 -0.000000 -0.000000 
							CHANNELS 3 Zrotation Yrotation Xrotation
							End Site
							{
								OFFSET 0.000000 0.000000 0.000000 
							}
						}
					}
				}
			}
		}
	}
}
MOTION
Frames: 16
Frame Time: 0.041667
1.478532 17.749791 35.292569 -173.581621 -53.292355 -159.349763 -29.427669 -9.918678 -34.970798 0.655004 10.795421 27.698215 0.423801 16.326885 -38.454273 1.381200 7.436600 21.015600 41.122423 -0.330710 -10.597756 -4.185871 -11.842191 32.947259 0.283999 -37.387391 37.273210 -1.744100 -8.311300 23.663800 0.302346 6.743785 -8.209440 -0.474523 3.035133 -1.704693 7.374792 -0.664830 16.740493 0.602200 0.206800 12.272800 -86.362612 15.667442 -16.499988 20.919586 -26.176691 -3.749047 -1.169146 3.514979 1.596982 -7.125000 0.000000 0.000000 81.245047 -13.694720 -18.780139 -7.931699 8.789837 -0.794830 -1.161247 2.197678 24.761945 7.125000 0.000000 0.000000 
1.478223 17.742997 35.295658 -173.436818 -53.360849 -159.548716 -29.313040 -9.934111 -34.993937 0.693602 10.866431 27.905210 0.516829 16.015176 -38.502865 1.438600 7.583100 21.454900 41.185262 -0.738168 -10.584428 -4.177971 -11.821911 32.898449 0.009827 -36.907115 37.867546 -1.668800 -8.139200 23.137600 0.348934 6.655642 -8.208244 -0.391673 2.997159 -1.707375 7.474649 -0.551190 16.811701 0.714300 0.238800 12.333800 -86.580373 15.722204 -16.794514 20.717927 -25.943247 -3.680349 -1.195589 3.508076 1.960878 -7.125000 0.000000 0.000000 81.146801 -13.622771 -18.614619 -8.098545 8.981589 -0.764255 -0.958782 2.143845 23.638391 7.125000 0.000000 0.000000 
1.477708 17.742585 35.297408 -173.446681 -53.363257 -159.563674 -29.292483 -10.013851 -34.944512 0.690694 10.862281 27.892686 0.494654 16.112028 -38.514375 1.408500 7.506600 21.225100 41.160743 -0.868635 -10.637044 -4.190155 -11.835323 32.952007 -0.034455 -36.808713 37.949934 -1.657500 -8.112900 23.057400 0.353676 6.630327 -8.222718 -0.375912 2.983308 -1.742495 7.533365 -0.559594 16.911717 0.758800 0.236900 12.414200 -86.662721 15.898623 -16.666715 20.606537 -25.809803 -3.644764 -1.190753 3.520094 2.022001 -7.125000 0.000000 0.000000 81.241325 -13.633872 -18.591365 -8.101721 8.991745 -0.762472 -0.922006 2.152326 23.317243 7.125000 0.000000 0.000000 
1.478943 17.744953 35.297202 -173.557263 -53.334745 -159.460843 -29.374330 -10.014136 -35.001810 0.698725 10.880620 27.939408 0.422033 16.340660 -38.448320 1.333500 7.312100 20.643400 41.076446 -0.768833 -10.680912 -4.191931 -11.838762 32.954904 -0.043180 -36.868880 38.002300 -1.626200 -8.039700 22.834800 0.344145 6.618658 -8.233081 -0.345847 2.977314 -1.759665 7.601035 -0.569891 16.993687 0.800300 0.239800 12.490700 -86.717208 15.947609 -16.884382 20.460046 -25.642338 -3.604265 -1.215218 3.540890 2.297257 -7.125000 0.000000 0.000000 81.455962 -13.823340 -18.653141 -7.972737 8.831295 -0.804829 -1.188143 2.201286 24.674542 7.125000 0.000000 0.000000 
1.480179 17.746497 35.296069 -173.502302 -53.351088 -159.549116 -29.304009 -10.100507 -34.929051 0.698185 10.883737 27.951556 0.405767 16.518455 -38.579147 1.278300 7.165200 20.205600 41.117552 -0.746421 -10.645922 -4.190901 -11.838719 32.953191 -0.081196 -36.825313 38.095942 -1.616100 -8.015900 22.762300 0.386547 6.533615 -8.196697 -0.212432 2.947425 -1.644622 7.558317 -0.492754 16.998165 0.780000 0.273500 12.521500 -86.882795 15.835564 -17.429805 20.326424 -25.501009 -3.562255 -1.215469 3.539032 2.753336 -7.125000 0.000000 0.000000 81.353150 -13.644243 -18.515527 -8.010489 8.866015 -0.795101 -1.182284 2.162773 24.325361 7.125000 0.000000 0.000000 
1.480076 17.747629 35.297408 -173.352695 -53.430874 -159.694711 -29.231919 -10.014970 -34.936317 0.707251 10.885360 27.962571 0.261467 16.811904 -38.269413 1.198100 6.945000 19.552500 41.230906 -0.809657 -10.626955 -4.183393 -11.831306 32.926107 -0.114471 -36.761696 38.167774 -1.610400 -8.002500 22.721700 0.411310 6.478679 -8.216260 -0.208832 2.919065 -1.701178 7.473115 -0.471991 16.977586 0.720600 0.279400 12.486200 -86.896941 16.009586 -17.442229 20.247490 -25.402968 -3.540380 -1.214502 3.556899 2.556928 -7.125000 0.000000 0.000000 81.374223 -13.751409 -18.462188 -8.064177 8.912262 -0.805084 -1.230384 2.151297 24.025092 7.125000 0.000000 0.000000 
1.478840 17.746909 35.302658 -173.337298 -53.470891 -159.694576 -29.224599 -10.039479 -34.949853 0.707379 10.885137 27.957706 0.265513 16.744473 -38.209246 1.236800 7.052400 19.870700 41.225770 -0.906321 -10.644526 -4.172332 -11.813879 32.868547 -0.163805 -36.696490 38.286981 -1.602400 -7.983500 22.663900 0.392578 6.478428 -8.245396 -0.319673 2.905597 -1.760872 7.511968 -0.517343 17.061099 0.750500 0.260800 12.547700 -86.844946 16.168877 -17.402066 20.200632 -25.329780 -3.523584 -1.220053 3.561061 2.273383 -7.125000 0.000000 0.000000 81.543525 -13.800597 -18.489957 -8.119621 8.969554 -0.809668 -1.268468 2.123442 23.865609 7.125000 0.000000 0.000000 
1.478120 17.745674 35.305849 -173.366097 -53.468560 -159.656489 -29.282914 -10.000217 -35.006399 0.712455 10.897871 27.990768 0.276084 16.717976 -38.225135 1.271700 7.147400 20.152900 41.209729 -0.810283 -10.616247 -4.164636 -11.803725 32.827183 -0.134420 -36.813445 38.257573 -1.606300 -7.992800 22.692200 0.411324 6.469593 -8.236919 -0.221310 2.906464 -1.704717 7.518251 -0.548693 17.134202 0.769700 0.243400 12.625700 -86.907729 16.163798 -17.414375 20.047393 -25.163111 -3.477468 -1.192293 3.576542 2.398494 -7.125000 0.000000 0.000000 81.576810 -13.759136 -18.530287 -8.205656 9.050694 -0.816909 -1.321638 2.087020 23.655275 7.125000 0.000000 0.000000 
1.478017 17.748144 35.307290 -173.406393 -53.459340 -159.598733 -29.317250 -10.007504 -35.041819 0.711859 10.903121 28.001169 0.308284 16.668733 -38.313578 1.273300 7.151600 20.165300 41.241196 -0.395398 -10.488921 -4.159252 -11.799989 32.793535 0.243884 -37.612654 37.524238 -1.791800 -8.418200 23.991500 0.432841 6.449552 -8.210341 -0.118725 2.903943 -1.604977 7.476463 -0.485830 17.066923 0.732100 0.277200 12.595700 -86.994839 16.053628 -17.562319 19.924490 -25.040416 -3.441099 -1.172630 3.582389 2.526866 -7.125000 0.000000 0.000000 81.484612 -13.652423 -18.525983 -8.120754 8.945249 -0.830869 -1.445734 2.083369 23.539398 7.125000 0.000000 0.000000 
1.478429 17.744644 35.308525 -173.303430 -53.436953 -159.687616 -29.247341 -9.932138 -35.074729 0.713503 10.905699 28.010634 0.391762 16.404047 -38.384906 1.309900 7.249800 20.457600 41.239148 -0.694880 -10.556968 -4.151062 -11.788472 32.767699 -0.125246 -36.860100 38.255638 -1.669400 -8.140500 23.141500 0.463245 6.416144 -8.195730 -0.077952 2.892221 -1.552654 7.433726 -0.391137 16.984186 0.707700 0.315400 12.539200 -87.109052 16.059065 -17.806070 19.955220 -25.078742 -3.451112 -1.187099 3.577154 2.590128 -7.125000 0.000000 0.000000 81.328564 -13.566661 -18.429426 -7.955669 8.753625 -0.856050 -1.617969 2.100831 23.602103 7.125000 0.000000 0.000000 
1.479664 17.744850 35.306363 -173.157765 -53.450868 -159.835377 -29.212254 -9.666461 -35.135861 0.725973 10.909899 28.037294 0.389866 16.216932 -38.158277 1.308500 7.246100 20.446400 41.350015 -0.660420 -10.502278 -4.152287 -11.793212 32.783839 -0.046195 -36.943988 38.061379 -1.727800 -8.274600 23.551200 0.477369 6.398911 -8.197552 -0.080866 2.882874 -1.545710 7.469653 -0.429930 17.043327 0.752500 0.291700 12.611500 -87.164174 16.088243 -18.021650 19.990898 -25.115436 -3.467721 -1.155157 3.606099 2.732239 -7.125000 0.000000 0.000000 81.342086 -13.505249 -18.325044 -7.847084 8.669264 -0.790919 -1.321272 2.121038 23.873781 7.125000 0.000000 0.000000 
1.479767 17.749791 35.305437 -173.131711 -53.474141 -159.881000 -29.302754 -9.405961 -35.170122 0.731959 10.896145 28.013863 0.196133 16.586149 -37.705088 1.208800 6.974900 19.641000 41.450820 -0.172936 -10.306519 -4.150624 -11.795191 32.777391 0.447396 -37.852340 37.041322 -1.878600 -8.608400 24.577900 0.451858 6.465898 -8.217793 -0.133328 2.906494 -1.578913 7.600814 -0.511863 17.274759 0.863900 0.256500 12.818600 -87.064557 16.137454 -17.914878 19.980857 -25.087944 -3.461337 -1.066260 3.624898 2.845696 -7.125000 0.000000 0.000000 81.548274 -13.482917 -18.489730 -7.862844 8.711404 -0.764330 -1.148710 2.124417 23.957988 7.125000 0.000000 0.000000 
1.482135 17.744130 35.307805 -173.170437 -53.476442 -159.868283 -29.295047 -9.524535 -35.125520 0.727576 10.895109 28.005807 0.249731 16.477365 -37.822235 1.245200 7.075500 19.939100 41.391073 -0.396276 -10.395077 -4.160807 -11.804559 32.821456 0.343095 -37.592389 37.218956 -1.833400 -8.510100 24.274500 0.434777 6.511488 -8.224123 -0.146374 2.926217 -1.573994 7.689361 -0.573521 17.435451 0.925400 0.237300 12.958700 -86.982118 16.170173 -17.862716 19.990198 -25.086754 -3.457182 -1.043955 3.609527 2.861894 -7.125000 0.000000 0.000000 81.742812 -13.408285 -18.654184 -7.931530 8.799674 -0.770397 -1.110398 2.141312 23.750925 7.125000 0.000000 0.000000 
1.477811 17.752674 35.308731 -173.343283 -53.510305 -159.753981 -29.388544 -9.666755 -34.958583 0.707172 10.860770 27.917372 0.347662 16.303626 -38.065225 1.314900 7.263000 20.496800 41.404434 0.152654 -10.127264 -4.159725 -11.802792 32.820927 0.879838 -38.495017 36.077503 -2.004800 -8.876000 25.408300 0.413315 6.542605 -8.227817 -0.171256 2.941762 -1.612716 7.605566 -0.668802 17.331962 0.837300 0.205100 12.876700 -86.914421 16.302952 -17.647174 20.126649 -25.236827 -3.499246 -1.094080 3.593040 2.567982 -7.125000 0.000000 0.000000 81.956094 -13.494694 -18.839046 -7.954224 8.818605 -0.805038 -1.233293 2.180451 24.142037 7.125000 0.000000 0.000000 
1.478943 17.748659 35.309143 -173.406330 -53.535687 -159.716504 -29.419207 -9.686106 -34.946901 0.706623 10.856742 27.904228 0.245001 16.580388 -37.921434 1.234800 7.046800 19.854200 41.329179 -0.223423 -10.253870 -4.174010 -11.814693 32.871976 0.611899 -38.021766 36.634126 -1.955200 -8.772200 25.085200 0.440258 6.514739 -8.229053 -0.064965 2.941666 -1.633984 7.461345 -0.665713 17.185583 0.744200 0.194800 12.765500 -87.064662 16.348356 -17.889311 20.255766 -25.389790 -3.546198 -1.115557 3.601164 2.721594 -7.125000 0.000000 0.000000 81.980805 -13.709332 -18.891138 -7.955677 8.805943 -0.854748 -1.389419 2.249426 24.936141 7.125000 0.000000 0.000000 
1.478326 17.752879 35.306981 -173.432414 -53.542236 -159.679528 -29.519706 -9.455973 -35.015685 0.707137 10.841952 27.868352 0.138622 16.721855 -37.602319 1.186500 6.912600 19.456800 41.342597 -0.051155 -10.229193 -4.169818 -11.813070 32.854031 0.714366 -38.284415 36.462481 -1.946000 -8.752600 25.024500 0.472424 6.466383 -8.219700 0.085678 2.927340 -1.550379 7.617599 -0.560482 17.264238 0.919600 0.212800 12.867800 -87.218900 16.359666 -18.090030 20.445151 -25.605318 -3.605601 -1.135248 3.586687 2.816835 -7.125000 0.000000 0.000000 81.877455 -13.737987 -18.835823 -7.981935 8.828841 -0.873608 -1.443596 2.268102 25.265314 7.125000 0.000000 0.000000 
